<svg width="157" height="137" viewBox="0 0 157 137" fill="none" xmlns="http://www.w3.org/2000/svg">
<g opacity="0.8" clip-path="url(#clip0_2234_8808)">
<path d="M5.3356 37.2957C5.3356 38.8151 4.19226 39.9546 2.6678 39.9546C1.14334 39.9546 0 38.8151 0 37.2957C0 35.7763 1.14334 34.6367 2.6678 34.6367C4.19226 34.6367 5.3356 35.9029 5.3356 37.2957Z" fill="white"/>
<path d="M28.0753 37.2957C28.0753 38.8151 26.932 39.9546 25.4075 39.9546C23.8831 39.9546 22.7397 38.8151 22.7397 37.2957C22.7397 35.7763 23.8831 34.6367 25.4075 34.6367C26.805 34.6367 28.0753 35.9029 28.0753 37.2957Z" fill="white"/>
<path d="M50.6881 37.2957C50.6881 38.8151 49.5448 39.9546 48.0203 39.9546C46.4959 39.9546 45.3525 38.8151 45.3525 37.2957C45.3525 35.7763 46.4959 34.6367 48.0203 34.6367C49.5448 34.6367 50.6881 35.9029 50.6881 37.2957Z" fill="white"/>
<path d="M73.4279 37.2957C73.4279 38.8151 72.2845 39.9546 70.7601 39.9546C69.2356 39.9546 68.0923 38.8151 68.0923 37.2957C68.0923 35.7763 69.2356 34.6367 70.7601 34.6367C72.2845 34.6367 73.4279 35.9029 73.4279 37.2957Z" fill="white"/>
<path d="M96.1676 37.2957C96.1676 38.8151 95.0243 39.9546 93.4998 39.9546C91.9754 39.9546 90.832 38.8151 90.832 37.2957C90.832 35.7763 91.9754 34.6367 93.4998 34.6367C94.8972 34.6367 96.1676 35.9029 96.1676 37.2957Z" fill="white"/>
<path d="M118.908 37.2957C118.908 38.8151 117.765 39.9546 116.24 39.9546C114.716 39.9546 113.572 38.8151 113.572 37.2957C113.572 35.7763 114.716 34.6367 116.24 34.6367C117.765 34.6367 118.908 35.9029 118.908 37.2957Z" fill="white"/>
<path d="M141.52 37.2957C141.52 38.8151 140.377 39.9546 138.852 39.9546C137.328 39.9546 136.185 38.8151 136.185 37.2957C136.185 35.7763 137.328 34.6367 138.852 34.6367C140.377 34.6367 141.52 35.9029 141.52 37.2957Z" fill="white"/>
<path d="M5.3356 54.614C5.3356 56.1335 4.19226 57.273 2.6678 57.273C1.14334 57.273 0 56.1335 0 54.614C0 53.0946 1.14334 51.9551 2.6678 51.9551C4.19226 51.9551 5.3356 53.0946 5.3356 54.614Z" fill="white"/>
<path d="M28.0753 54.614C28.0753 56.1335 26.932 57.273 25.4075 57.273C23.8831 57.273 22.7397 56.1335 22.7397 54.614C22.7397 53.0946 23.8831 51.9551 25.4075 51.9551C26.805 51.9551 28.0753 53.0946 28.0753 54.614Z" fill="white"/>
<path d="M50.6881 54.614C50.6881 56.1335 49.5448 57.273 48.0203 57.273C46.4959 57.273 45.3525 56.1335 45.3525 54.614C45.3525 53.0946 46.4959 51.9551 48.0203 51.9551C49.5448 51.9551 50.6881 53.0946 50.6881 54.614Z" fill="white"/>
<path d="M73.4279 54.614C73.4279 56.1335 72.2845 57.273 70.7601 57.273C69.2356 57.273 68.0923 56.1335 68.0923 54.614C68.0923 53.0946 69.2356 51.9551 70.7601 51.9551C72.2845 51.9551 73.4279 53.0946 73.4279 54.614Z" fill="white"/>
<path d="M96.1676 54.614C96.1676 56.1335 95.0243 57.273 93.4998 57.273C91.9754 57.273 90.832 56.1335 90.832 54.614C90.832 53.0946 91.9754 51.9551 93.4998 51.9551C94.8972 51.9551 96.1676 53.0946 96.1676 54.614Z" fill="white"/>
<path d="M118.908 54.614C118.908 56.1335 117.765 57.273 116.24 57.273C114.716 57.273 113.572 56.1335 113.572 54.614C113.572 53.0946 114.716 51.9551 116.24 51.9551C117.765 51.9551 118.908 53.0946 118.908 54.614Z" fill="white"/>
<path d="M141.52 54.614C141.52 56.1335 140.377 57.273 138.852 57.273C137.328 57.273 136.185 56.1335 136.185 54.614C136.185 53.0946 137.328 51.9551 138.852 51.9551C140.377 51.9551 141.52 53.0946 141.52 54.614Z" fill="white"/>
<path d="M5.3356 2.65896C5.3356 4.17837 4.19226 5.31793 2.6678 5.31793C1.14334 5.31793 0 4.17837 0 2.65896C0 1.13956 1.14334 0 2.6678 0C4.19226 0 5.3356 1.13956 5.3356 2.65896Z" fill="white"/>
<path d="M28.0753 2.65896C28.0753 4.17837 26.932 5.31793 25.4075 5.31793C23.8831 5.31793 22.7397 4.17837 22.7397 2.65896C22.7397 1.13956 23.8831 0 25.4075 0C26.805 0 28.0753 1.13956 28.0753 2.65896Z" fill="white"/>
<path d="M50.6881 2.65896C50.6881 4.17837 49.5448 5.31793 48.0203 5.31793C46.4959 5.31793 45.3525 4.17837 45.3525 2.65896C45.3525 1.13956 46.6229 0 48.0203 0C49.5448 0 50.6881 1.13956 50.6881 2.65896Z" fill="white"/>
<path d="M73.4279 2.65896C73.4279 4.17837 72.2845 5.31793 70.7601 5.31793C69.2356 5.31793 68.0923 4.17837 68.0923 2.65896C68.0923 1.13956 69.3627 0 70.7601 0C72.1575 0 73.4279 1.13956 73.4279 2.65896Z" fill="white"/>
<path d="M96.1676 2.65896C96.1676 4.17837 95.0243 5.31793 93.4998 5.31793C91.9754 5.31793 90.832 4.17837 90.832 2.65896C90.832 1.13956 91.9754 0 93.4998 0C94.8972 0 96.1676 1.13956 96.1676 2.65896Z" fill="white"/>
<path d="M118.908 2.65896C118.908 4.17837 117.765 5.31793 116.24 5.31793C114.716 5.31793 113.572 4.17837 113.572 2.65896C113.572 1.13956 114.716 0 116.24 0C117.765 0 118.908 1.13956 118.908 2.65896Z" fill="white"/>
<path d="M141.52 2.65896C141.52 4.17837 140.377 5.31793 138.852 5.31793C137.328 5.31793 136.185 4.17837 136.185 2.65896C136.185 1.13956 137.328 0 138.852 0C140.377 0 141.52 1.13956 141.52 2.65896Z" fill="white"/>
<path d="M5.3356 19.9773C5.3356 21.4967 4.19226 22.6363 2.6678 22.6363C1.14334 22.6363 0 21.3701 0 19.9773C0 18.4579 1.14334 17.3184 2.6678 17.3184C4.19226 17.3184 5.3356 18.4579 5.3356 19.9773Z" fill="white"/>
<path d="M28.0753 19.9773C28.0753 21.4967 26.932 22.6363 25.4075 22.6363C23.8831 22.6363 22.7397 21.4967 22.7397 19.9773C22.7397 18.4579 23.8831 17.3184 25.4075 17.3184C26.805 17.3184 28.0753 18.4579 28.0753 19.9773Z" fill="white"/>
<path d="M50.6881 19.9773C50.6881 21.4967 49.5448 22.6363 48.0203 22.6363C46.4959 22.6363 45.3525 21.4967 45.3525 19.9773C45.3525 18.4579 46.4959 17.3184 48.0203 17.3184C49.5448 17.3184 50.6881 18.4579 50.6881 19.9773Z" fill="white"/>
<path d="M73.4279 19.9773C73.4279 21.4967 72.2845 22.6363 70.7601 22.6363C69.2356 22.6363 68.0923 21.4967 68.0923 19.9773C68.0923 18.4579 69.2356 17.3184 70.7601 17.3184C72.2845 17.3184 73.4279 18.4579 73.4279 19.9773Z" fill="white"/>
<path d="M96.1676 19.9773C96.1676 21.4967 95.0243 22.6363 93.4998 22.6363C91.9754 22.6363 90.832 21.4967 90.832 19.9773C90.832 18.4579 91.9754 17.3184 93.4998 17.3184C94.8972 17.3184 96.1676 18.4579 96.1676 19.9773Z" fill="white"/>
<path d="M118.908 19.9773C118.908 21.4967 117.765 22.6363 116.24 22.6363C114.716 22.6363 113.572 21.4967 113.572 19.9773C113.572 18.4579 114.716 17.3184 116.24 17.3184C117.765 17.3184 118.908 18.4579 118.908 19.9773Z" fill="white"/>
<path d="M141.52 19.9773C141.52 21.4967 140.377 22.6363 138.852 22.6363C137.328 22.6363 136.185 21.4967 136.185 19.9773C136.185 18.4579 137.328 17.3184 138.852 17.3184C140.377 17.3184 141.52 18.4579 141.52 19.9773Z" fill="white"/>
<path d="M5.3356 71.9324C5.3356 73.4518 4.19226 74.5914 2.6678 74.5914C1.14334 74.5914 0 73.4518 0 71.9324C0 70.413 1.14334 69.2734 2.6678 69.2734C4.19226 69.2734 5.3356 70.5396 5.3356 71.9324Z" fill="white"/>
<path d="M28.0753 71.9324C28.0753 73.4518 26.932 74.5914 25.4075 74.5914C23.8831 74.5914 22.7397 73.4518 22.7397 71.9324C22.7397 70.413 23.8831 69.2734 25.4075 69.2734C26.805 69.2734 28.0753 70.5396 28.0753 71.9324Z" fill="white"/>
<path d="M50.6881 71.9324C50.6881 73.4518 49.5448 74.5914 48.0203 74.5914C46.4959 74.5914 45.3525 73.4518 45.3525 71.9324C45.3525 70.413 46.4959 69.2734 48.0203 69.2734C49.5448 69.2734 50.6881 70.5396 50.6881 71.9324Z" fill="white"/>
<path d="M73.4279 71.9324C73.4279 73.4518 72.2845 74.5914 70.7601 74.5914C69.2356 74.5914 68.0923 73.4518 68.0923 71.9324C68.0923 70.413 69.2356 69.2734 70.7601 69.2734C72.2845 69.2734 73.4279 70.5396 73.4279 71.9324Z" fill="white"/>
<path d="M96.1676 71.9324C96.1676 73.4518 95.0243 74.5914 93.4998 74.5914C91.9754 74.5914 90.832 73.4518 90.832 71.9324C90.832 70.413 91.9754 69.2734 93.4998 69.2734C94.8972 69.2734 96.1676 70.5396 96.1676 71.9324Z" fill="white"/>
<path d="M118.908 71.9324C118.908 73.4518 117.765 74.5914 116.24 74.5914C114.716 74.5914 113.572 73.4518 113.572 71.9324C113.572 70.413 114.716 69.2734 116.24 69.2734C117.765 69.2734 118.908 70.5396 118.908 71.9324Z" fill="white"/>
<path d="M141.52 71.9324C141.52 73.4518 140.377 74.5914 138.852 74.5914C137.328 74.5914 136.185 73.4518 136.185 71.9324C136.185 70.413 137.328 69.2734 138.852 69.2734C140.377 69.2734 141.52 70.5396 141.52 71.9324Z" fill="white"/>
<path d="M5.3356 89.2508C5.3356 90.7702 4.19226 91.9097 2.6678 91.9097C1.14334 91.9097 0 90.7702 0 89.2508C0 87.7313 1.14334 86.5918 2.6678 86.5918C4.19226 86.5918 5.3356 87.7313 5.3356 89.2508Z" fill="white"/>
<path d="M28.0753 89.2508C28.0753 90.7702 26.932 91.9097 25.4075 91.9097C23.8831 91.9097 22.7397 90.7702 22.7397 89.2508C22.7397 87.7313 23.8831 86.5918 25.4075 86.5918C26.805 86.5918 28.0753 87.7313 28.0753 89.2508Z" fill="white"/>
<path d="M50.6881 89.2508C50.6881 90.7702 49.5448 91.9097 48.0203 91.9097C46.4959 91.9097 45.3525 90.7702 45.3525 89.2508C45.3525 87.7313 46.4959 86.5918 48.0203 86.5918C49.5448 86.5918 50.6881 87.7313 50.6881 89.2508Z" fill="white"/>
<path d="M70.7601 91.9097C72.2335 91.9097 73.4279 90.7193 73.4279 89.2508C73.4279 87.7823 72.2335 86.5918 70.7601 86.5918C69.2867 86.5918 68.0923 87.7823 68.0923 89.2508C68.0923 90.7193 69.2867 91.9097 70.7601 91.9097Z" fill="white"/>
<path d="M96.1676 89.2508C96.1676 90.7702 95.0243 91.9097 93.4998 91.9097C91.9754 91.9097 90.832 90.7702 90.832 89.2508C90.832 87.7313 91.9754 86.5918 93.4998 86.5918C94.8972 86.5918 96.1676 87.7313 96.1676 89.2508Z" fill="white"/>
<path d="M118.908 89.2508C118.908 90.7702 117.765 91.9097 116.24 91.9097C114.716 91.9097 113.572 90.7702 113.572 89.2508C113.572 87.7313 114.716 86.5918 116.24 86.5918C117.765 86.5918 118.908 87.7313 118.908 89.2508Z" fill="white"/>
<path d="M141.52 89.2508C141.52 90.7702 140.377 91.9097 138.852 91.9097C137.328 91.9097 136.185 90.7702 136.185 89.2508C136.185 87.7313 137.328 86.5918 138.852 86.5918C140.377 86.5918 141.52 87.7313 141.52 89.2508Z" fill="white"/>
<path d="M5.3356 106.569C5.3356 108.089 4.19226 109.228 2.6678 109.228C1.14334 109.228 0 108.089 0 106.569C0 105.05 1.14334 103.91 2.6678 103.91C4.19226 103.91 5.3356 105.05 5.3356 106.569Z" fill="white"/>
<path d="M28.0753 106.569C28.0753 108.089 26.932 109.228 25.4075 109.228C23.8831 109.228 22.7397 108.089 22.7397 106.569C22.7397 105.05 23.8831 103.91 25.4075 103.91C26.805 103.91 28.0753 105.05 28.0753 106.569Z" fill="white"/>
<path d="M50.6881 106.569C50.6881 108.089 49.5448 109.228 48.0203 109.228C46.4959 109.228 45.3525 108.089 45.3525 106.569C45.3525 105.05 46.4959 103.91 48.0203 103.91C49.5448 103.91 50.6881 105.05 50.6881 106.569Z" fill="white"/>
<path d="M73.4279 106.569C73.4279 108.089 72.2845 109.228 70.7601 109.228C69.2356 109.228 68.0923 108.089 68.0923 106.569C68.0923 105.05 69.2356 103.91 70.7601 103.91C72.2845 103.91 73.4279 105.05 73.4279 106.569Z" fill="white"/>
<path d="M96.1676 106.569C96.1676 108.089 95.0243 109.228 93.4998 109.228C91.9754 109.228 90.832 108.089 90.832 106.569C90.832 105.05 91.9754 103.91 93.4998 103.91C94.8972 103.91 96.1676 105.05 96.1676 106.569Z" fill="white"/>
<path d="M118.908 106.569C118.908 108.089 117.765 109.228 116.24 109.228C114.716 109.228 113.572 108.089 113.572 106.569C113.572 105.05 114.716 103.91 116.24 103.91C117.765 103.91 118.908 105.05 118.908 106.569Z" fill="white"/>
<path d="M141.52 106.569C141.52 108.089 140.377 109.228 138.852 109.228C137.328 109.228 136.185 108.089 136.185 106.569C136.185 105.05 137.328 103.91 138.852 103.91C140.377 103.91 141.52 105.05 141.52 106.569Z" fill="white"/>
<path d="M5.3356 123.887C5.3356 125.407 4.19226 126.546 2.6678 126.546C1.14334 126.546 0 125.407 0 123.887C0 122.368 1.14334 121.229 2.6678 121.229C4.19226 121.229 5.3356 122.495 5.3356 123.887Z" fill="white"/>
<path d="M28.0753 123.887C28.0753 125.407 26.932 126.546 25.4075 126.546C23.8831 126.546 22.7397 125.407 22.7397 123.887C22.7397 122.368 23.8831 121.229 25.4075 121.229C26.805 121.229 28.0753 122.495 28.0753 123.887Z" fill="white"/>
<path d="M50.6881 123.887C50.6881 125.407 49.5448 126.546 48.0203 126.546C46.4959 126.546 45.3525 125.407 45.3525 123.887C45.3525 122.368 46.4959 121.229 48.0203 121.229C49.5448 121.229 50.6881 122.495 50.6881 123.887Z" fill="white"/>
<path d="M73.4279 123.887C73.4279 125.407 72.2845 126.546 70.7601 126.546C69.2356 126.546 68.0923 125.407 68.0923 123.887C68.0923 122.368 69.2356 121.229 70.7601 121.229C72.2845 121.229 73.4279 122.495 73.4279 123.887Z" fill="white"/>
<path d="M96.1676 123.887C96.1676 125.407 95.0243 126.546 93.4998 126.546C91.9754 126.546 90.832 125.407 90.832 123.887C90.832 122.368 91.9754 121.229 93.4998 121.229C94.8972 121.229 96.1676 122.495 96.1676 123.887Z" fill="white"/>
<path d="M118.908 123.887C118.908 125.407 117.765 126.546 116.24 126.546C114.716 126.546 113.572 125.407 113.572 123.887C113.572 122.368 114.716 121.229 116.24 121.229C117.765 121.229 118.908 122.495 118.908 123.887Z" fill="white"/>
<path d="M141.52 123.887C141.52 125.407 140.377 126.546 138.852 126.546C137.328 126.546 136.185 125.407 136.185 123.887C136.185 122.368 137.328 121.229 138.852 121.229C140.377 121.229 141.52 122.495 141.52 123.887Z" fill="white"/>
</g>
<defs>
<clipPath id="clip0_2234_8808">
<rect width="187" height="137" fill="white"/>
</clipPath>
</defs>
</svg>
